<?xml version="1.0" ?><!DOCTYPE svg  PUBLIC '-//W3C//DTD SVG 1.1//EN'  'http://www.w3.org/Graphics/SVG/1.1/DTD/svg11.dtd'><svg enable-background="new 0 0 50 50" height="50px" id="Layer_1" version="1.1" viewBox="0 0 50 50" width="50px" xml:space="preserve" xmlns="http://www.w3.org/2000/svg" xmlns:xlink="http://www.w3.org/1999/xlink"><rect fill="none" height="50" width="50"/><path d="M47,8c0,0-27.648,0-29,0  c-1.469,0-2.484-4-4-4H3C1.896,4,1,4.896,1,6v4v30v4c0,1.104,0.896,2,2,2h44c1.104,0,2-0.896,2-2V10C49,8.896,48.104,8,47,8z" fill="none" stroke="#000000" stroke-linecap="round" stroke-miterlimit="10" stroke-width="2"/><path d="M1,27V16  c0-1.104,0.896-2,2-2h44c1.104,0,2,0.896,2,2v11" fill="none" stroke="#000000" stroke-linecap="round" stroke-miterlimit="10" stroke-width="2"/></svg>